<?xml version="1.0" standalone="no"?>
<!DOCTYPE svg PUBLIC "-//W3C//DTD SVG 1.1//EN" "http://www.w3.org/Graphics/SVG/1.1/DTD/svg11.dtd">
<svg xmlns="http://www.w3.org/2000/svg" xmlns:xlink="http://www.w3.org/1999/xlink" version="1.1" id="Layer_1" x="0px" y="0px" width="496" viewBox="0 0 496 496" enable-background="new 0 0 496 496" xml:space="preserve" height="496">
<path fill="#0D5EAF" opacity="1.000000" stroke="none" d=" M292.024170,422.773682   C289.170197,427.317139 284.855560,428.149017 280.480408,428.196442   C266.150421,428.351685 251.817673,428.298553 237.486298,428.244141   C234.191528,428.231628 230.891022,427.537842 229.972366,423.787689   C229.106979,420.254974 231.160965,417.632751 233.998581,415.885376   C237.679169,413.618896 241.425858,411.374603 245.375229,409.650146   C250.999649,407.194305 253.626312,403.465668 252.790833,397.167450   C252.136566,392.235321 251.977570,387.226471 251.799011,382.244537   C251.355301,369.863464 253.297440,357.689545 255.369659,345.553436   C255.965836,342.061798 255.260696,340.320740 251.500641,339.741211   C242.779846,338.397125 234.372421,335.755798 226.379730,332.692993   C224.619934,333.762604 224.025146,335.246307 223.661011,336.618744   C218.282120,356.892792 210.367813,376.409454 205.820618,396.942383   C204.245010,404.057007 205.012711,410.305634 209.053741,416.435089   C213.011841,422.438812 210.254425,427.903259 202.980911,428.147278   C192.161850,428.510284 181.313400,428.480103 170.492981,428.133240   C164.355789,427.936523 162.143723,423.593445 165.576019,418.565369   C169.669525,412.568665 170.077301,406.547913 168.581360,399.599060   C163.333878,375.223572 161.471008,350.662689 164.446854,325.720245   C165.833542,314.097443 166.452118,302.145020 160.194611,290.700714   C160.605942,297.960419 160.738113,304.755707 161.418732,311.495605   C163.766830,334.747803 156.046387,355.077332 143.628723,374.093384   C138.260193,382.314575 131.761703,389.787842 127.350983,398.643311   C123.871178,405.629761 124.188408,408.148895 129.424515,413.866852   C131.980103,416.657623 134.484131,419.567535 132.833344,423.600403   C131.102264,427.829468 127.237671,428.286041 123.195869,428.244507   C115.197487,428.162323 107.197037,428.276764 99.198769,428.188965   C90.458206,428.093018 86.719902,424.102295 89.077591,415.914764   C91.722176,406.730896 91.389908,397.493683 91.554924,388.215057   C91.988358,363.843750 96.292397,340.203827 105.367920,317.569427   C109.967705,306.097595 112.417633,294.425720 112.075798,282.041321   C111.809433,272.391479 112.397896,262.748871 114.005966,253.181229   C116.790398,236.614517 125.961105,223.304230 136.050751,210.628403   C139.594284,206.176575 139.976654,203.054337 136.688477,198.471466   C131.556870,191.319321 125.256882,185.474976 118.350365,180.213013   C107.917320,172.264267 105.094170,162.166519 105.958054,149.060745   C106.696167,137.863022 114.485809,134.593628 121.178986,129.386444   C127.140472,124.748528 133.806229,124.887520 140.681320,126.927040   C142.752747,127.541534 144.859299,128.072144 146.981522,128.473068   C150.510040,129.139694 153.153687,128.299072 154.256058,124.355141   C155.547852,119.733528 158.284225,118.144600 163.330429,119.434235   C168.788956,120.829254 174.115784,118.773354 179.441360,117.226082   C189.022049,114.442558 198.535248,114.402313 207.352890,119.988564   C214.401505,124.454071 217.580475,131.661133 220.326263,139.042923   C224.223709,149.520813 226.789352,160.411163 228.993896,171.324387   C231.019287,181.350723 235.038895,190.275330 240.868423,198.536453   C246.449036,206.444839 252.692566,213.761383 259.275146,220.876541   C270.135132,232.615143 283.694275,235.770767 298.795288,234.478180   C346.510101,230.394028 376.326630,260.015106 382.389587,299.481384   C383.702942,308.030548 384.121887,316.561249 383.662476,325.293884   C383.082825,336.312042 386.580963,346.559235 393.037201,355.749847   C403.228271,370.257019 410.275574,386.122528 412.753448,403.815765   C413.468262,408.920166 414.051727,414.079132 413.487915,419.216248   C412.811554,425.378906 410.264252,428.065186 404.140289,428.156616   C387.812744,428.400391 371.479065,428.302856 355.148529,428.215851   C352.253601,428.200409 349.238861,427.422729 348.384674,424.146637   C347.507599,420.782745 349.552185,418.193146 352.161285,416.621185   C356.716766,413.876709 361.573456,411.635010 366.280518,409.138550   C371.740601,406.242706 372.164459,404.535431 368.137665,399.665192   C363.126984,393.604950 356.817596,388.870392 351.005890,383.643707   C341.276031,374.893372 332.463898,365.419830 326.234283,353.818024   C324.195984,350.021973 322.113434,349.880066 318.784424,352.339630   C306.019867,361.770447 297.235748,373.445099 296.271881,389.942657   C295.806396,397.910248 294.948730,405.854156 294.385712,413.817078   C294.171509,416.846588 293.791412,419.778168 292.024170,422.773682  z"/>
</svg>